<svg xmlns="http://www.w3.org/2000/svg" viewBox="0 0 255.92 84.45"><defs><style>.cls-1{fill:#766458;}.cls-2{fill:#81b3d3;}</style></defs><title>Welcome</title><g id="Слой_2" data-name="Слой 2"><g id="Layer_1" data-name="Layer 1"><path class="cls-1" d="M64,70l-.2.23a6.45,6.45,0,0,1-4.52,2.22l2.82-4.86c1.81-3.14.14-6.1-2.68-6.1-2.3,0-4.09.92-5.81,3.92L52.14,68l-1.23,2.1-.15.18c-2.16,2.51-4.26,4.49-5.59,4.49-.66,0-1-.46-.35-1.64l6.42-11.2h2.45l.86-1.44H52.08l2.82-4.89h-3l-2.82,4.89H46.38l-.86,1.44h2.73l-6,10.42c-1.27,2.22-.37,4.26,2,4.26,1.74,0,3.66-1.31,5.51-3.08,0,3.82,5.3,4.56,8.54.46H59A9.08,9.08,0,0,0,65.12,71,2.57,2.57,0,0,0,64,70Zm-6.39.2h-.15A1.77,1.77,0,0,0,55.71,72,2,2,0,0,0,56,73l0,.06c-1.41,2.42-4.84,2-3.05-1.15L55.19,68l1.44-2.45c2.1-3.57,5-2.16,3.17.95Z"/><path class="cls-1" d="M105.46,70l-.2.23c-2.16,2.51-4.92,4.49-7,4.49-1.84,0-2.94-1.15-1.55-3.57l.29-.52c1.93.81,5.56.43,7.8-3.46l.43-.75c1.61-2.76.06-4.84-2.39-4.84A6.33,6.33,0,0,0,97.19,65l-2.91,5-.17.2c-2.16,2.5-4.26,4.49-5.59,4.49-.66,0-1-.46-.35-1.64l4.32-7.57c1.29-2.27.06-3.92-1.61-3.92-1.3,0-2.68.72-4.18,2.27l4.78-8.32h-3L80.14,70l-.17.19c-2.16,2.51-4.26,4.49-5.59,4.49-.66,0-1-.46-.35-1.64l6.42-11.2h2.45l.86-1.44H81.3l2.82-4.89h-3l-2.82,4.9H75.6l-.86,1.44h2.73l-6,10.42c-1.27,2.22-.37,4.26,2,4.26a6.7,6.7,0,0,0,3.82-1.63l-.77,1.34h3l4.55-7.92c4.61-5.79,6.65-5,5.35-2.82L85.59,72.3c-1.27,2.22-.37,4.26,2,4.26,1.78,0,3.76-1.37,5.65-3.22.15,1.86,1.65,3.22,4.05,3.22,3.4,0,6.77-2.65,9.24-5.53A2.55,2.55,0,0,0,105.46,70Zm-5.7-4.2c1.73-3,4.78-2.48,3,.63l-.43.75c-1.44,2.45-3.37,2.39-4.49,2Z"/><path class="cls-1" d="M214.62,70l-.2.23a18.8,18.8,0,0,1-3.6,3.25c1-2.85.75-7.23,2.59-11.06l-2.25-1.21c-1.24,1.7-3.94,5.62-6.65,8.78h0l-.2.23c-2.16,2.51-4.26,4.49-5.59,4.49-.66,0-1-.46-.34-1.64l6.39-11.2h-3l-5.33,9.3c-2.27,2.07-4,3.22-4.61,3-.75-.31,0-1.44.38-2.07l5.84-10.19h-3L190.38,70l-.2.23a6.45,6.45,0,0,1-4.52,2.22l2.82-4.87c1.81-3.14.15-6.1-2.68-6.1-2.3,0-4.09.92-5.82,3.92L178.52,68l-1.23,2.1-.15.18c-2.16,2.51-4.92,4.49-7,4.49-1.84,0-2.94-1.15-1.56-3.57l.29-.52c1.93.81,5.56.43,7.8-3.45l.43-.75c1.61-2.76.06-4.84-2.39-4.84A6.34,6.34,0,0,0,169.08,65l-2.9,5-.17.2c-2.48,2.85-4.61,4.69-7,5.7l6.71-11.46H164a3.17,3.17,0,0,0-3.14-2.88A6.65,6.65,0,0,0,155.72,65l-2.87,5h0l-.2.23c-2.16,2.5-4.26,4.49-5.59,4.49-.66,0-1-.46-.35-1.64l3-5.24a3.06,3.06,0,0,0-.43-4.06l-1.67-2a1.17,1.17,0,0,1,.17-1.73l-1.55-1.7c-1.7,1.52-1.84,3.23-.78,4.61l.26.35c-1.32,1.87-3.11,4.4-5.07,6.71h0l-.2.23a6.46,6.46,0,0,1-4.52,2.22l2.82-4.87c1.81-3.14.14-6.1-2.68-6.1-2.3,0-4.09.92-5.81,3.92L128.77,68l-1.23,2.1-.15.17c-2.48,2.85-4.61,4.69-7,5.7l6.71-11.46h-1.76a3.17,3.17,0,0,0-3.14-2.88A6.65,6.65,0,0,0,117.11,65l-4.2,7.26c-1.27,2.22-.37,4.26,2,4.26a5.71,5.71,0,0,0,2.85-1L117,77c-4,1.24-6.56,2.88-6.56,5.12,0,2.88,4.4,3.48,6.56-.2l2.27-3.95a18.24,18.24,0,0,0,7.18-4.48c0,3.83,5.29,4.58,8.54.48h.66A9.08,9.08,0,0,0,141.76,71h0c1.44-1.67,2.56-3.17,5-6.42l.4.49a1.47,1.47,0,0,1,.17,1.7l-3.17,5.5c-1.27,2.22-.37,4.26,2,4.26,1.52,0,3.18-1,4.8-2.43a2.31,2.31,0,0,0,2.6,2.43,5.71,5.71,0,0,0,2.85-1L155.58,77c-4,1.24-6.56,2.88-6.56,5.12,0,2.88,4.4,3.48,6.56-.2l2.27-3.94a18.44,18.44,0,0,0,7.32-4.62c.13,1.88,1.65,3.24,4.06,3.24s4.86-1.37,6.95-3.2c-.12,3.92,5.27,4.72,8.54.58h.66a8.39,8.39,0,0,0,3.33-.86c-.81,2.08-.06,3.48,1.65,3.48s3.48-1.5,4.92-2.88a2.34,2.34,0,0,0,2.56,2.88c2.48,0,5.33-2.65,7.8-5.53h0c1.7-2,3.2-4.06,4.26-5.47-1.18,3.11-.55,8.69-3.4,8.69a1.67,1.67,0,0,1-1.41-1.09l-1.87,1a3.27,3.27,0,0,0,3.28,2.42,7.46,7.46,0,0,0,.83-.06l.09,0c3.05-.4,6.07-2.82,8.32-5.44A1.89,1.89,0,0,0,214.62,70Zm-43-4.2c1.73-3,4.78-2.48,3,.63l-.43.75c-1.44,2.45-3.37,2.39-4.49,2ZM114.47,81.4c-.63,1.12-1.64,1-1.64.14s.72-1.67,3-2.56Zm1.38-6.68c-.66,0-1-.46-.35-1.64l4.18-7.29c1.61-2.79,4.81-2.07,3.34.63l-2.27,4C118.93,73.31,117.12,74.72,115.85,74.72Zm18.4-4.52h-.15A1.77,1.77,0,0,0,132.34,72a2,2,0,0,0,.29,1l0,.06c-1.41,2.42-4.84,2-3.05-1.15L131.82,68l1.44-2.45c2.1-3.57,5-2.16,3.17.95Zm18.83,11.2c-.63,1.12-1.64,1-1.64.14s.72-1.67,3-2.56Zm1.38-6.68c-.66,0-1-.46-.35-1.64l4.18-7.29c1.61-2.79,4.81-2.07,3.34.63l-2.27,4C157.54,73.31,155.72,74.72,154.45,74.72ZM184,70.2h-.15A1.77,1.77,0,0,0,182.09,72a2,2,0,0,0,.29,1l0,.06c-1.41,2.42-4.84,2-3.05-1.15L181.57,68,183,65.51c2.1-3.57,5-2.16,3.17.95Z"/><rect class="cls-1" y="66.82" width="28.92" height="1.96"/><rect class="cls-1" x="227" y="66.82" width="28.92" height="1.96"/><path class="cls-2" d="M61.76,0h7.71L68.26,44.92H53.73l-2-18.54-2,18.54H35.2L34,0h7.65l.64,37.15h.83L47.94,0h7.58l4.91,37.15h.76Z"/><path class="cls-2" d="M93.61,37.15v7.77H72.72V0h20.9V7.7H80.36V18.54H90.94v7.7H80.36V37.15Z"/><path class="cls-2" d="M115,37.15v7.77H96.67V0h7.65V37.15Z"/><path class="cls-2" d="M131.2,28.36l7.71-1.8v13.6a4.8,4.8,0,0,1-4.71,4.75H122.72A4.76,4.76,0,0,1,118,40.17V4.75A4.72,4.72,0,0,1,122.72,0h11.47a4.76,4.76,0,0,1,4.71,4.75v9.11l-7.71,1.8v-8h-5.54V37.15h5.54V28.36Z"/><path class="cls-2" d="M159.67,0a4.76,4.76,0,0,1,4.72,4.75V40.17a4.81,4.81,0,0,1-4.72,4.75H148.2a4.76,4.76,0,0,1-4.71-4.75V4.75A4.72,4.72,0,0,1,148.2,0Zm-3,7.7h-5.54V37.15h5.54Z"/><path class="cls-2" d="M189.42,0H197V44.92h-7.65V22.84l-3.06,11.42h-7.45l-3-11.42V44.92H168.2V0h7.58l6.82,21.69Z"/><path class="cls-2" d="M221.71,37.15v7.77h-20.9V0h20.9V7.7H208.46V18.54H219v7.7H208.46V37.15Z"/></g></g></svg>