<svg xmlns="http://www.w3.org/2000/svg" viewBox="0 0 293.82 79.4"><defs><style>.cls-1{fill:#fff;}</style></defs><title>grand-canyon-sucks</title><g id="Слой_2" data-name="Слой 2"><g id="Layer_1" data-name="Layer 1"><path class="cls-1" d="M33.42,17.06c7.66-2.59,8.24-12.18.69-12.18-2.08,0-4.56,1.46-6.27,4.45L17.63,27a14.72,14.72,0,0,1-1.46,2.15c-2.63-3.61-1.86-9,1.82-11.38l-1.53-1.93c-8,5.07-5.62,19.69,7.66,19.69C35.46,35.51,40.71,21.91,33.42,17.06ZM24,32.59a10.93,10.93,0,0,1-5.47-1.31,19.74,19.74,0,0,0,1.9-2.7l6.38-11.05,1,.11C36.77,19.5,33.24,32.59,24,32.59Zm4.08-17.29,3.06-5.25c2.77-4.78,6.31-2,4.41,1.6C34.15,14.4,32,15.24,28.13,15.31Z"/><path class="cls-1" d="M65.5,29.32c-.63,2.25.57,4.08,3.15,4.08,1.53,0,3.43-1,5.25-2.48.18,1.46,1.35,2.48,3.28,2.48S81.41,32,83.57,30c-.42,2,.54,3.36,2.41,3.36,2.08,0,4.41-1.9,6.24-3.65-.36,2,.84,3.65,3.25,3.65,3.14,0,6.75-3.35,9.88-7a1.56,1.56,0,0,0-.1-.15c2.1-2.44,3.95-5,5.27-6.78-1.5,3.94-.69,11-4.3,11a2.12,2.12,0,0,1-1.79-1.39l-2.37,1.24a4.14,4.14,0,0,0,4.16,3.06c.36,0,.69,0,1.06-.07,0,0,.07,0,.11,0,2.79-.37,5.55-2.06,7.94-4.23.06,2.5,2,4.33,5.14,4.33,4.3,0,8.57-3.35,11.71-7a3.29,3.29,0,0,0-1.42-1.31l-.26.29c-2.73,3.17-6.24,5.69-8.9,5.69-2.33,0-3.72-1.46-2-4.52l.36-.66c2.44,1,7,.55,9.88-4.38l.55-.95c2-3.5.07-6.13-3-6.13a8,8,0,0,0-7.11,4.38l-3.68,6.32-.1,0-.26.29a23.7,23.7,0,0,1-4.56,4.12c1.2-3.61.95-9.15,3.28-14L112.12,14c-1.57,2.15-5,7.11-8.42,11.12l.11.14-.14.15c-2.73,3.17-5.4,5.69-7.08,5.69-.84,0-1.31-.58-.44-2.08l8.1-14.19h-3.79L93.71,26.57c-2.88,2.63-5.1,4.08-5.83,3.76-.95-.4,0-1.82.48-2.62l7.4-12.91H92l-6,10.45a2.19,2.19,0,0,0-.29-.16l-.25.29c-2.73,3.17-5.4,5.69-7.08,5.69-.84,0-1.31-.58-.44-2.08L84,18.26H81.84a3.94,3.94,0,0,0-4-3.83c-2,0-4.89,1.61-6.49,4.38l-3.85,6.64a2.85,2.85,0,0,0-.58-.36l-.26.29c-2.73,3.17-6.24,5.69-8.9,5.69-2.33,0-3.72-1.46-2-4.52l3.9-6.78c2.19-3.76,6.05-3.14,3.79.8L63,21.5h3.1l.55-.95c2-3.5.07-6.13-3-6.13a8,8,0,0,0-7.11,4.38l-3.77,6.47a2.41,2.41,0,0,0-.35-.19l-.26.29c-2.73,3.17-6.24,5.69-8.9,5.69-2.33,0-3.72-1.46-2-4.52l.36-.66c2.44,1,7,.55,9.88-4.37l.55-.95c2-3.5.07-6.13-3-6.13a8,8,0,0,0-7.11,4.38l-4,6.82c-2.37,4-.33,7.77,4.16,7.77,3.34,0,6.66-2,9.44-4.63-.1,2.65,1.87,4.63,5.14,4.63C59.77,33.4,62.85,31.66,65.5,29.32Zm58-9.56c2.19-3.76,6.05-3.14,3.79.8l-.55.95c-1.82,3.1-4.27,3-5.69,2.52ZM69.34,29l5.29-9.23c2-3.54,6.09-2.63,4.23.8l-3,5.18c-2.3,3.61-4.56,5.32-6.13,5.32C68.94,31.06,68.46,30.48,69.34,29ZM45.15,19.76c2.19-3.76,6.05-3.14,3.79.8l-.55.95c-1.82,3.1-4.27,3-5.69,2.52Z"/><path class="cls-1" d="M173.74,33.4c4.3,0,8.57-3.35,11.71-7A3.27,3.27,0,0,0,184,25.08l-.25.29c-2.74,3.17-6.24,5.69-8.9,5.69-2.33,0-3.72-1.46-2-4.52l.37-.66c2.44,1,7,.55,9.88-4.38l.55-.95c2-3.5.07-6.13-3-6.13a8,8,0,0,0-7.11,4.38l-3.69,6.34-.11-.06-.26.29c-2.73,3.17-5.4,5.69-7.07,5.69-.84,0-1.31-.58-.44-2.08l5.47-9.59c1.64-2.88.07-5-2-5-1.64,0-3.39.91-5.29,2.88l6.05-10.54h-3.79l-10.7,18.56a2.43,2.43,0,0,0-.43-.25l-.26.29c-2.74,3.17-5.4,5.69-7.08,5.69-.84,0-1.31-.58-.44-2.08l8.13-14.19h3.1L155.81,13h-3.14l3.57-6.2h-3.79L148.88,13h-3.43l-1.09,1.82h3.46L140.2,28c-1.6,2.81-.47,5.4,2.59,5.4,1.88,0,3.94-1.22,6-3L147.25,33h3.83l5.76-10c5.84-7.33,8.42-6.38,6.78-3.57L158.7,28c-1.6,2.81-.47,5.4,2.59,5.4,2.3,0,4.86-1.81,7.3-4.22C168.7,31.62,170.63,33.4,173.74,33.4Zm3.06-13.64c2.19-3.76,6.06-3.14,3.79.8l-.55.95c-1.82,3.1-4.27,3-5.69,2.52Z"/><path class="cls-1" d="M288.75,25.08l-.26.29c-2.73,3.17-5.4,5.69-7.07,5.69-.84,0-1.31-.58-.44-2.08L293.82,6.78H290l-5.58,9.63a4.11,4.11,0,0,0-3.47-2c-2,0-4.89,1.6-6.49,4.38l-3.71,6.41-.24-.13-.26.29c-2.73,3.17-5.4,5.69-7.07,5.69-.84,0-1.31-.58-.44-2.08l5.47-9.59c1.64-2.88.07-5-2-5-1.64,0-3.35.88-5.25,2.85l1.42-2.48h-3.79l-6.06,10.49a2.57,2.57,0,0,0-.36-.2l-.26.29c-2.73,3.17-5.4,5.69-7.07,5.69-.84,0-1.31-.58-.44-2.08l6.13-10.72h-2.15a3.94,3.94,0,0,0-4-3.83c-2,0-4.89,1.6-6.49,4.38l-3.67,6.33-.21.23c-2.73,3.17-5.4,5.69-7.07,5.69-.84,0-1.31-.58-.44-2.08l3.79-6.64c1.31-2.3.69-3.65-.55-5.14l-2.12-2.55a1.48,1.48,0,0,1,.22-2.19l-2-2.15c-2.15,1.93-2.33,4.08-1,5.83l.33.44c-1.68,2.37-3.94,5.58-6.42,8.5a3.42,3.42,0,0,0,.26.32c-3.12,3.59-5.78,5.92-8.76,7.19l4.81-8.24h-3.79l-.4.66c-2,3.54-4.3,6.05-7.26,6.05-2.59,0-3.06-2.59-.8-6.46l1.06-1.86a13.62,13.62,0,0,0,2.15.18c13.49,0,20-18.05,8.13-18.05-2.08,0-4.56,1.46-6.27,4.45L202,19.5a6.11,6.11,0,0,1-3.39-5.4,6,6,0,0,1,2.44-4.78L199.85,7.1a8.63,8.63,0,0,0-3.9,7.07,8.57,8.57,0,0,0,4.78,7.55l-1.13,2c-2.66,4.6-2.19,9.7,3.17,9.7a7.6,7.6,0,0,0,4.12-1.2l-1,1.71c-5.14,1.57-8.31,3.65-8.31,6.49,0,3.65,5.58,4.41,8.31-.25l2.92-5c3.94-1.24,7.81-3.94,12-8.75a2.3,2.3,0,0,0-.24-.36c1.68-2,3.11-3.89,6-7.78l.51.62a1.86,1.86,0,0,1,.22,2.15l-4,7c-1.61,2.81-.47,5.4,2.59,5.4,1.91,0,4-1.24,6-3,0,1.75,1.15,3,3.31,3,1.53,0,3.43-1,5.25-2.48.18,1.46,1.35,2.48,3.28,2.48s3.79-1.13,5.74-2.79L248,33h3.83l5.8-10.1c5.8-7.26,8.39-6.31,6.75-3.5L259.5,28c-1.6,2.81-.47,5.4,2.59,5.4,2,0,4.23-1.39,6.38-3.35-.2,1.9,1,3.35,3.29,3.35,1.53,0,3.43-1,5.25-2.48.18,1.46,1.35,2.48,3.28,2.48,3.14,0,6.75-3.35,9.88-7A3.3,3.3,0,0,0,288.75,25.08Zm-78-14.15c1.13-1.93,2.37-2.77,3.43-2.77,6,0,1.79,12.25-8.13,12.25h-.77Zm-8.06,28.59c-.8,1.42-2.08,1.2-2.08.18s.88-2.11,3.79-3.25Zm39.69-13.78c-2.3,3.61-4.56,5.32-6.13,5.32-.84,0-1.31-.58-.44-2.08l5.29-9.23c2-3.54,6.09-2.62,4.23.8Zm36.7-.22c-2.3,3.76-4.63,5.54-6.24,5.54-.84,0-1.31-.58-.44-2.08l5.29-9.23c2-3.54,6.09-2.62,4.23.8h0Z"/><path class="cls-1" d="M162.05,61.08l-.25.29c-2.73,3.17-5.4,5.69-7.07,5.69-.84,0-1.31-.58-.44-2.08l5.47-9.59c1.64-2.88.07-5-2-5-1.64,0-3.35.88-5.25,2.84l1.42-2.48h-3.79L144,61.37a2.73,2.73,0,0,0-.48-.29l-.26.29a8.18,8.18,0,0,1-5.73,2.81L141.09,58c2.3-4,.18-7.73-3.39-7.73-2.92,0-5.18,1.17-7.37,5l-1.86,3.25-1.63,2.78a2.5,2.5,0,0,0-.34-.19l-.26.29c-3.14,3.61-5.8,5.94-8.79,7.22l10.39-17.8h-3.79l-6.71,11.67c-2.92,2.7-5.18,4.19-5.91,3.86-.95-.4,0-1.82.47-2.62l7.4-12.91h-3.79l-6.05,10.47a2.53,2.53,0,0,0-.33-.19l-.25.29c-2.73,3.17-5.4,5.69-7.07,5.69-.84,0-1.31-.58-.44-2.08l5.47-9.59c1.64-2.88.07-5-2-5-1.64,0-3.35.88-5.25,2.84L101,50.8H97.18L91.12,61.29a2.62,2.62,0,0,0-.36-.2l-.25.29c-2.73,3.17-5.4,5.69-7.08,5.69-.84,0-1.31-.58-.44-2.08l6.13-10.72H87a3.94,3.94,0,0,0-4-3.83c-2,0-4.89,1.6-6.49,4.38l-3.92,6.76a2.16,2.16,0,0,0-.83-.49l-.26.29c-2.73,3.17-6.09,5.69-9.85,5.69-2.59,0-4.16-2.59-1.9-6.46l1.06-1.86a13.64,13.64,0,0,0,2.15.18c4,0,8.64-2.08,11.63-7.3a10.51,10.51,0,0,0,1.53-5.1c0-3.43-2.23-5.65-5-5.65-2.08,0-4.56,1.46-6.27,4.45L58.91,55.51a6.11,6.11,0,0,1-3.39-5.4A6,6,0,0,1,58,45.34l-1.24-2.23a8.36,8.36,0,0,0,.88,14.62l-1.13,2c-2.66,4.6-1.09,9.7,4.27,9.7,4.24,0,7.35-1.89,10-4.37-.83,2.38.37,4.37,3.06,4.37,1.53,0,3.43-1,5.25-2.48.18,1.46,1.35,2.48,3.28,2.48s3.79-1.13,5.74-2.78L86.64,69h3.83l5.8-10.1c5.8-7.26,8.39-6.31,6.75-3.5L98.09,64c-1.6,2.81-.47,5.4,2.59,5.4,2,0,4.28-1.42,6.47-3.42-.46,2.09.51,3.42,2.4,3.42s3.9-1.53,5.62-3.06l-2.08,3.57c-5.14,1.53-8.35,3.65-8.35,6.49,0,3.65,5.58,4.41,8.31-.25l2.92-5a23.92,23.92,0,0,0,9.56-6.2c-.52,5.3,6.53,6.5,10.79,1.13h.84a11.07,11.07,0,0,0,5-1.46L139.55,69h3.83l5.8-10.1c5.8-7.26,8.39-6.31,6.75-3.5L151,64c-1.6,2.81-.48,5.4,2.59,5.4s6.75-3.35,9.88-7A3.29,3.29,0,0,0,162.05,61.08ZM67.66,46.93C68.79,45,70,44.16,71.09,44.16c1.42,0,2.08.95,2.08,2.33,0,3.54-4.3,9.92-10.21,9.92h-.77ZM81,61.74c-2.3,3.61-4.56,5.32-6.13,5.32-.84,0-1.31-.58-.44-2.08l5.29-9.23c2-3.54,6.09-2.62,4.23.8Zm28.85,13.78c-.8,1.42-2.08,1.2-2.08.18s.91-2.11,3.83-3.25ZM135.4,61.34h-.18A2.24,2.24,0,0,0,133,63.6a2.47,2.47,0,0,0,.37,1.27l0,.07c-1.79,3.06-6.13,2.48-3.87-1.46l2.88-5,1.82-3.1c2.66-4.52,6.31-2.73,4,1.2Z"/><path class="cls-1" d="M250,62.4a2.4,2.4,0,0,0-1.42-1.31l-.26.29a23.62,23.62,0,0,1-4.56,4.12c1.2-3.61.95-9.15,3.28-14L244.16,50c-1.57,2.15-5,7.11-8.42,11.12l0,0,0,0-.25.29c-2.74,3.17-5.4,5.69-7.08,5.69-.84,0-1.64-.84-1.64-2.55V62.94c2.66.33,5.47-1.42,7.26-4.52l1-1.75c3.54-6.05-2.23-8.06-6.09-4.52l5.4-9.37h-3.79L219.71,61.54a3.06,3.06,0,0,0-.69-.46l-.26.29c-2.73,3.17-6.24,5.69-8.9,5.69-2.33,0-3.72-1.46-2-4.52l3.9-6.78c2.19-3.76,6.05-3.14,3.79.8l-.55.95h3.1l.55-.95c2-3.5.07-6.13-3-6.13a8,8,0,0,0-7.11,4.38l-3.73,6.4-.23-.13-.26.29c-2.73,3.17-5.4,5.69-7.07,5.69-.84,0-1.31-.58-.44-2.08l8.1-14.19h-3.79l-6.75,11.78c-2.88,2.63-5.1,4.08-5.84,3.76-.95-.4,0-1.82.47-2.62l7.4-12.91h-3.79l-7.37,12.74a22.67,22.67,0,0,1-2.45,2c1.2-3.61.95-9.15,3.28-14L183.25,50c-1.57,2.15-10.32,13.75-13.75,17.76A5.5,5.5,0,0,0,170.92,69c2.15-2.48,9.37-11.78,10.72-13.57-1.5,3.94-.69,11-4.3,11a2.12,2.12,0,0,1-1.79-1.39l-2.37,1.24a4.13,4.13,0,0,0,4.16,3.06,10.43,10.43,0,0,0,1.06-.07s.07,0,.11,0a13.17,13.17,0,0,0,5.63-2.38,2.29,2.29,0,0,0,2.51,2.49c2.08,0,4.41-1.9,6.23-3.65-.36,2,.84,3.65,3.25,3.65s5-1.89,7.47-4.38c0,2.52,2,4.38,5.14,4.38s6.14-1.72,8.78-4L215.4,69h3.83l4.34-7.55v3c0,3.24.62,4.89,3.68,4.89s6.75-3.35,9.88-7l0,0,0,0c2.15-2.48,4-5.14,5.4-6.93-1.49,3.94-.69,11-4.3,11a2.12,2.12,0,0,1-1.79-1.39l-2.37,1.24a4.14,4.14,0,0,0,4.16,3.06,10.58,10.58,0,0,0,1.06-.07s.07,0,.11,0C243.29,68.78,247.12,65.71,250,62.4Zm-25.19-3,1.09-1.9c4.38-6.09,7.37-4.41,6-2.12l-1.82,3.14C228.93,60.5,225.61,61.88,224.77,59.4Z"/><path class="cls-1" d="M249.81,65a2.18,2.18,0,0,0-2.19,2.23,2.15,2.15,0,0,0,2.19,2.19A2.18,2.18,0,0,0,252,67.21,2.21,2.21,0,0,0,249.81,65Z"/><polygon class="cls-1" points="249.99 63.49 253.82 63.49 265.71 42.77 261.92 42.77 249.99 63.49"/><path class="cls-1" d="M5.75,6.9a2.47,2.47,0,0,1-.17.88,2.4,2.4,0,0,1-.51.8,2.6,2.6,0,0,1-.83.57,2.65,2.65,0,0,1-1.1.22,3.44,3.44,0,0,1-1.3-.25A3,3,0,0,1,.78,8.39a3.1,3.1,0,0,1-.57-1A4,4,0,0,1,0,6.05a5.92,5.92,0,0,1,1.76-4.3,5.77,5.77,0,0,1,.85-.69A9.14,9.14,0,0,1,3.5.52L4.23.17,4.6,0,6,2c-.25.09-.52.21-.83.35a4.63,4.63,0,0,0-.86.54,3,3,0,0,0-.68.76,2.15,2.15,0,0,0-.3,1A2.74,2.74,0,0,1,5,5.24,2,2,0,0,1,5.75,6.9Zm7.87,0a2.42,2.42,0,0,1-.17.88,2.38,2.38,0,0,1-.51.8,2.58,2.58,0,0,1-.83.57,2.66,2.66,0,0,1-1.1.22,3.43,3.43,0,0,1-1.3-.25,2.94,2.94,0,0,1-1.06-.73,3.15,3.15,0,0,1-.57-1,4.05,4.05,0,0,1-.2-1.29,5.92,5.92,0,0,1,1.76-4.3,5.6,5.6,0,0,1,.85-.69,9,9,0,0,1,.9-.54L12.1.17,12.47,0l1.35,2c-.25.09-.52.21-.83.35a4.57,4.57,0,0,0-.86.54,2.88,2.88,0,0,0-.68.76,2.13,2.13,0,0,0-.31,1,2.74,2.74,0,0,1,1.73.57A2,2,0,0,1,13.62,6.9Z"/><path class="cls-1" d="M278.78,65.84a2.46,2.46,0,0,1,.17-.88,2.4,2.4,0,0,1,.51-.8,2.58,2.58,0,0,1,.83-.57,2.66,2.66,0,0,1,1.1-.22,3.45,3.45,0,0,1,1.3.25,2.92,2.92,0,0,1,1.06.73,3.11,3.11,0,0,1,.58,1,4.06,4.06,0,0,1,.2,1.29,5.91,5.91,0,0,1-1.76,4.3,5.66,5.66,0,0,1-.85.69,8.11,8.11,0,0,1-.9.54c-.28.15-.52.27-.73.35l-.37.17-1.35-2c.25-.09.52-.21.83-.35a4.6,4.6,0,0,0,.86-.54,2.92,2.92,0,0,0,.68-.76,2.13,2.13,0,0,0,.3-1,2.73,2.73,0,0,1-1.72-.58A2,2,0,0,1,278.78,65.84Zm-7.87,0a2.42,2.42,0,0,1,.17-.88,2.39,2.39,0,0,1,.51-.8,2.59,2.59,0,0,1,.83-.57,2.66,2.66,0,0,1,1.1-.22,3.46,3.46,0,0,1,1.3.25,2.94,2.94,0,0,1,1.06.73,3.14,3.14,0,0,1,.57,1,4,4,0,0,1,.2,1.29A5.92,5.92,0,0,1,274.9,71a5.74,5.74,0,0,1-.85.69,9.34,9.34,0,0,1-.9.54c-.28.15-.52.27-.73.35l-.37.17-1.36-2c.25-.09.53-.21.83-.35a4.56,4.56,0,0,0,.86-.54,2.94,2.94,0,0,0,.68-.76,2.16,2.16,0,0,0,.3-1,2.75,2.75,0,0,1-1.73-.58A2,2,0,0,1,270.91,65.84Z"/></g></g></svg>