<svg xmlns="http://www.w3.org/2000/svg"><defs><style>.cls-1{fill:#81b3d2}</style><style>.cls-1{fill:#fff}</style><style>.cls-1{fill:#81b3d2}</style><style>.cls-1{fill:#81b3d2}</style><style>.cls-1{fill:#fff}</style><style>.cls-1{fill:#010101}</style><style>.cls-1{fill:#fff}</style><style>.cls-1{fill:#fff}</style><style>.cls-1{fill:#fff}</style><style>.cls-1{fill:#81b3d3}.cls-2{fill:#23a9e1}.cls-3{fill:#fff}.cls-4{fill:#491213}.cls-5{fill:#dc6243}.cls-6{fill:#f49774}.cls-7{fill:#f4b1a4}</style></defs><symbol id="icon-burger" viewBox="0 0 76.17 68.96"><title>icon-burger</title><g id="&#x421;&#x43B;&#x43E;&#x439;_2" data-name="&#x421;&#x43B;&#x43E;&#x439; 2"><g id="Layer_1" data-name="Layer 1"><path class="cls-1" d="M71.91 46H4.25A4.26 4.26 0 0 0 0 50.29v3.45A4.27 4.27 0 0 0 4.25 58h1v1a10 10 0 0 0 9.88 10H61a10 10 0 0 0 10-10v-1h1a4.26 4.26 0 0 0 4.25-4.25v-3.46A4.26 4.26 0 0 0 71.91 46zM68 59a6.93 6.93 0 0 1-7 7H15.13a6.93 6.93 0 0 1-6.92-7v-1H68zm5.21-5.29a1.27 1.27 0 0 1-1.3 1.29H4.25A1.27 1.27 0 0 1 3 53.75v-3.46A1.27 1.27 0 0 1 4.25 49h67.66a1.27 1.27 0 0 1 1.25 1.25zM16.16 37.86l5.48 4 5.47-4 5.48 4 5.48-4 5.48 4 5.48-4 5.48 4 5.47-4 5.49 4 6.37-4.65-1.77-2.42-4.6 3.35-5.49-4-5.47 4-5.48-4-5.48 4-5.48-4-5.48 4-5.48-4-5.47 4-5.48-4-5.47 4-4.6-3.35-1.77 2.42 6.37 4.65 5.47-4zM70.89 31.09c0-.61.05-2.62 0-3C70.24 12.48 55.8 0 38.08 0S5.92 12.48 5.24 28.09v3zM38.08 3c16 0 29.15 11.15 29.84 25.09H8.24C8.93 14.15 22.05 3 38.08 3z"/><circle class="cls-1" cx="38.08" cy="15.04" r="2"/><circle class="cls-1" cx="30.08" cy="10.08" r="2"/><circle class="cls-1" cx="46.08" cy="10.08" r="2"/></g></g></symbol><symbol id="icon-cross" viewBox="0 0 22.2 22.2"><style>.st0{fill:#fff}</style><title>icon-cross</title><g id="&#x421;&#x43B;&#x43E;&#x439;_2"><path class="st0" d="M22.2 2.8L19.4 0l-8.3 8.3L2.8 0 0 2.8l8.3 8.3L0 19.4l2.8 2.8 8.3-8.3 8.3 8.3 2.8-2.8-8.3-8.3z" id="Layer_1"/></g></symbol><symbol id="icon-facebook" viewBox="0 0 9 18"><title>icon-facebook</title><g id="&#x421;&#x43B;&#x43E;&#x439;_2" data-name="&#x421;&#x43B;&#x43E;&#x439; 2"><path class="cls-1" d="M6.28 3.36h2.4V0H5.79C2.66.18 1.54 2.39 1.95 6.11H0v3.52h2v9.31h3.8V9.63h2.85V6.11H5.79c-.02-1.04-.04-2.4.49-2.75z" id="Layer_1" data-name="Layer 1"/></g></symbol><symbol id="icon-gift" viewBox="0 0 63 75.08"><title>icon-gift</title><g id="&#x421;&#x43B;&#x43E;&#x439;_2" data-name="&#x421;&#x43B;&#x43E;&#x439; 2"><path class="cls-1" d="M60.17 22.23H35.76c13.6-6.81 14.69-11.11 14.19-13.52-1.14-3.92-5.6-6.94-9.85-5.34-5.48 2.06-7 10.26-8.51 16.19-1.89-6-3.73-13.65-8-17.52A7.19 7.19 0 0 0 17.9 0c-4 .35-9.65 5.32-7.34 10.85 2.22 5.31 9.54 8.67 14.35 11.35H2.83A2.84 2.84 0 0 0 0 25.07v11.18a2.84 2.84 0 0 0 2.84 2.83h.27v36h57v-36h.1A2.84 2.84 0 0 0 63 36.25V25.07a2.85 2.85 0 0 0-2.83-2.84zM41.77 5.87c2.07-.31 4.91 1.28 5.18 3.17.39 2.72-3.35 5.19-5 6.34-2.48 1.72-4.85 2.61-7.18 4 .86-3.63 2.5-12.84 7-13.51zm-22.54 9.85C17 14.25 12.79 11.34 12.89 8c.11-3.51 5.65-6.45 8.68-3.8 3.8 3.33 5.62 11 7 16.36a68.29 68.29 0 0 1-9.34-4.84zm5.88 56.43H6V39.08h19.11zm0-36.06H3V25.23h22.11zm10 36.06h-7.06V25.23h7.06zm22 0H38.05V39.08h19.08zM60 36.08H38.05V25.23H60z" id="Layer_1" data-name="Layer 1"/></g></symbol><symbol id="icon-house" viewBox="0 0 74.7 72.35"><title>icon-house</title><g id="&#x421;&#x43B;&#x43E;&#x439;_2" data-name="&#x421;&#x43B;&#x43E;&#x439; 2"><g id="Layer_1" data-name="Layer 1"><path class="cls-1" d="M29.5 65.34h16V41.41h-16v23.93zm13.06-2.94H32.44V44.34h10.13z"/><path class="cls-1" d="M72.62 39.44l2.08-2.08-9.91-9.91V.47H51v13.16L37.35 0 0 37.36l2.08 2.08 7.83-7.83v37.8H6v2.94h63.85v-2.94h-5.06v-37.8zm-18.71-36h7.94v21.1l-7.94-7.94zm7.94 66h-49V28.67l24.5-24.5 24.5 24.5z"/><path class="cls-1" d="M29.75 27.21a7.75 7.75 0 1 0 7.75-7.75 7.75 7.75 0 0 0-7.75 7.75zm7.75-5a5 5 0 1 1-5 5 5 5 0 0 1 5-4.97zM16.91 41.41h3v3.94h-3zM22.85 41.41h3v3.94h-3zM16.91 47.41h3v3.94h-3zM22.85 47.41h3v3.94h-3zM48.85 41.41h3v3.94h-3zM54.78 41.41h3v3.94h-3zM48.85 47.41h3v3.94h-3zM54.78 47.41h3v3.94h-3z"/></g></g></symbol><symbol id="icon-htmlacademy" viewBox="0 0 26.95 34.09"><title>htmlacademy</title><g data-name="&#x421;&#x43B;&#x43E;&#x439; 2"><path d="M13.62 0h-.15L0 1.41v24.66l13.47 8 13.43-8V1.41zM25 12.13l-11.5-6.8v-.1h-.09l-.09-.06v.11l-11.4 6.84v-9l11.55-1.19L25 3.15v9zM13.41 6.79l11.51 6.71-4.48 2.64-7.09-4.22v1.42l5.9 3.51-.86.51-5-3v1.41l3.83 2.27-.78.52-3-1.79v1.43l1.85 1.09-1.8 1.08L2 13.62zM1.92 15.13l11.41 6.79v1l-7.92-4.69v1.42l8 4.79v1.08l-8-4.74v1.42l8 4.82 8.14-4.87V17L25 15v10l-11.53 6.85L1.92 25z" data-name="Layer 1"/></g></symbol><symbol id="icon-like-white" viewBox="0 0 22 20"><title>icon-like-white</title><g id="&#x421;&#x43B;&#x43E;&#x439;_2" data-name="&#x421;&#x43B;&#x43E;&#x439; 2"><g id="Layer_1" data-name="Layer 1"><g id="Page-1"><g id="Core"><g id="thumb-up"><path class="cls-1" d="M12.38 3.65l-.64 2.93L11.22 9h8.68v2.06L17 18H8V8l4.37-4.37M13.2 0L6.6 6.6A1.68 1.68 0 0 0 6 8v10a2 2 0 0 0 2 2h9a2 2 0 0 0 1.8-1.2l3-7.1a1.69 1.69 0 0 0 .1-.7V9h.1a2 2 0 0 0-2-2h-6.3l1-4.6v-.3a2.1 2.1 0 0 0-.4-1.1l-1.1-1zM4 8H0v12h4V8zm18 1z" id="Shape"/></g></g></g></g></g></symbol><symbol id="icon-like" viewBox="0 0 22 20"><title>licon-like</title><g data-name="&#x421;&#x43B;&#x43E;&#x439; 2"><path d="M12.38 3.65l-.64 2.93L11.22 9h8.68v2.06L17 18H8V8l4.37-4.37M13.2 0L6.6 6.6A1.68 1.68 0 0 0 6 8v10a2 2 0 0 0 2 2h9a2 2 0 0 0 1.8-1.2l3-7.1a1.69 1.69 0 0 0 .1-.7V9h.1a2 2 0 0 0-2-2h-6.3l1-4.6v-.3a2.1 2.1 0 0 0-.4-1.1l-1.1-1zM4 8H0v12h4V8zm18 1z" data-name="Layer 1"/></g></symbol><symbol id="icon-mail" viewBox="0 0 16 12"><title>mail</title><g data-name="&#x421;&#x43B;&#x43E;&#x439; 2"><path d="M8 8a2.32 2.32 0 0 1-1-.34L0 4v7a1 1 0 0 0 1 1h14a1 1 0 0 0 1-1V4L9 7.66A2.32 2.32 0 0 1 8 8zm7-8H1a1 1 0 0 0-1 1v.76L8 6l8-4.21V1a1 1 0 0 0-1-1z" data-name="Layer 1"/></g></symbol><symbol id="icon-menu" viewBox="0 0 22.9 22"><style>.st0{fill:#81b3d2}</style><title>menu-icon</title><g id="&#x421;&#x43B;&#x43E;&#x439;_2"><g id="Layer_1"><path class="st0" d="M0 0h22.9v4H0zM0 9h22.9v4H0zM0 18h22.9v4H0z"/></g></g></symbol><symbol id="icon-phone" viewBox="0 0 18 18"><title>phone</title><g id="&#x421;&#x43B;&#x43E;&#x439;_2" data-name="&#x421;&#x43B;&#x43E;&#x439; 2"><g id="Layer_1" data-name="Layer 1"><g id="Page-1"><g id="Icons-Communication"><g id="phone"><path id="Shape" class="cls-1" d="M3.6 7.8a15.57 15.57 0 0 0 6.6 6.6l2.2-2.2a.8.8 0 0 1 1-.2 10.45 10.45 0 0 0 3.6.6 1 1 0 0 1 1 1V17a1 1 0 0 1-1 1A17 17 0 0 1 0 1a.94.94 0 0 1 1-1h3.5a.94.94 0 0 1 1 1 11.33 11.33 0 0 0 .6 3.6 1.23 1.23 0 0 1-.2 1L3.6 7.8z"/></g></g></g></g></g></symbol><symbol id="icon-twitter" viewBox="0 0 18 14"><title>icon-twitter</title><g id="&#x421;&#x43B;&#x43E;&#x439;_2" data-name="&#x421;&#x43B;&#x43E;&#x439; 2"><g id="Layer_1" data-name="Layer 1"><path class="cls-1" d="M11.28.15A3.29 3.29 0 0 1 15 1.3c.69-.23 1.37-.47 2.07-.69a2.26 2.26 0 0 1-.88 1.73 1.64 1.64 0 0 0 1.34-.48 2.9 2.9 0 0 1-1.61 2c-.24 6.59-3.27 11-10.38 10.82H5c-.42 0-4.29-.45-5-1.84a6.57 6.57 0 0 0 4.84-1.15c-1-.29-2.76-.46-3.07-2.88A2.14 2.14 0 0 0 3 8.9C1.76 8.07.38 7.37.46 5.22a2 2 0 0 0 1.38.46C1.12 5.44-.19 2.4.92.84c1.87 1.81 3.85 3.52 7.37 3.69C8.51 2.29 9.46.79 11.28.15z" id="W6EeEF"/></g></g></symbol><symbol id="icon-youtube" viewBox="0 0 20 14"><title>icon-youtube</title><g id="&#x421;&#x43B;&#x43E;&#x439;_2" data-name="&#x421;&#x43B;&#x43E;&#x439; 2"><path class="cls-1" d="M17.14 0H2.83A2.84 2.84 0 0 0 0 2.83v8.35A2.84 2.84 0 0 0 2.83 14h14.31A2.84 2.84 0 0 0 20 11.18V2.83A2.84 2.84 0 0 0 17.14 0zM7 10.39V3.62L13.8 7z" id="Layer_1" data-name="Layer 1"/></g></symbol><symbol id="intro-triangle" viewBox="0 0 1199.91 57"><title>intro-triangle</title><g id="&#x421;&#x43B;&#x43E;&#x439;_2" data-name="&#x421;&#x43B;&#x43E;&#x439; 2"><g id="Layer_1" data-name="Layer 1"><path class="cls-1" d="M249.57 23.71L0 0v57h599.96L249.57 0v23.71zM950.35 23.71V0L599.96 57h599.95V0L950.35 23.71z"/></g></g></symbol><symbol id="logo-desktop" viewBox="0 0 186.64 96.43"><title>logo-desktop</title><g id="&#x421;&#x43B;&#x43E;&#x439;_2" data-name="&#x421;&#x43B;&#x43E;&#x439; 2"><g id="Layer_1" data-name="Layer 1"><g id="Layer_2" data-name="Layer 2"><path class="cls-1" d="M186.64 0H0l80.49 90.47a16.82 16.82 0 0 0 25.67 0z"/><path class="cls-2" d="M43.24.72l49.53 58.35 49.32-58L43.24.72z"/><path class="cls-3" d="M122 17.33l-15.19.08c6-6.93 8.7-6.19 15.19-.08zM80.85 22.69h26.68c-2-1.23-6.71-7.06-9.31-4.89-.21.18-7.5-8.85-12.3-4.5-4.18 3.8-6.12-.5-10.86 2.51-5.4 3.57 3.12 5.67 5.78 6.88z"/><path class="cls-4" d="M93.1 0H42.18v22.48L92.76 84l.34-.42 50.75-60.39V0zM54.9 1.79h5.46V19l-5.46-6.5zm-.78 9.77l-5-5.9V1.79h5zm19.3-2.71l-5.74-7.06h5.74zm-6.64 3.83l-5.6-10.89h5.6zm-5.63-9.24l5.52 10.74A58.16 58.16 0 0 0 61.15 19zm6.42-.55l5.61 6.9c-1.12.65-2.16 1.3-3.1 1.93s-1.72 1.2-2.51 1.78zm6.64-.2L79 6.91a48.56 48.56 0 0 0-4.8 2.3zm5.57 3.89l-5.41-4.79h6v4.59zM98.9 1.79h5l-5 2.44zm-5.79 0h4.44l-4.44 2.06zm-.94 2l-4.24-2h4.24zm-5.49.53l-5.1-2.53h5.09zm-5.57-1.88l4.72 2.31a38.68 38.68 0 0 0-4.72 1.35zm6.35 0L90.92 4a32 32 0 0 0-3.46.39zm10.42.06v1.94a33.15 33.15 0 0 0-3.36-.39zm6.47-.06v3.7a40 40 0 0 0-4.78-1.37zm.78-.64h5.94l-5.43 4.82-.51-.19V1.79zm13.55 0h5.6l-5.6 10.88zm-6.64 0h5.74l-5.74 7zm-.78.89v6.52a50.83 50.83 0 0 0-4.81-2.27zm6.64.2v10.5c-.71-.51-1.46-1-2.26-1.56-1-.68-2.16-1.37-3.38-2.06zm6.42.55v15.24a63.2 63.2 0 0 0-5.48-4.6zm.78 16V1.79h5.46V13.2l-5.39 6.31zm6.25-17.65h5v4.67l-5 5.82zm-83 0v2.94l-2.46-2.94zM61.25 20l.14.13a56.8 56.8 0 0 1 9.21-7.65C75.79 9 83.84 4.9 92.76 5s17.06 4.19 22.35 7.67a60.16 60.16 0 0 1 9.45 7.62l-3.87 4.54c-6.91.95-11.86 6.08-18.6 5-3.4-.56-3.5-2.51-4.47-4.46-.75-1.49-1.94-1.3-3.49-1.91s-2.29-1.83-5.13-1.15c-2.53.59-2.81 4.52-6 4.29-1.69-.12-1.81-2.5-4.24-5.54-6.3-7.57-12.16-6.52-16.25.48l30.25 35.94zm75.86-14.46V1.79h3.2z"/><path class="cls-2" d="M88.75 70.92l4.02-6.5 4 6.5-4 6.51-4.02-6.51z"/><path class="cls-3" d="M65.46 32.27a2.81 2.81 0 0 1 .81 2.12c-.06.58-.94 1.55-.27 1.85l2.24-2.83c-.6-.15-5.37-5.85-5.44-6.47l-3.16 1.73c.16.66 1.29 0 1.85 0a2.92 2.92 0 0 1 2 1.15c-1.73 1.45-5.93 5-6.37 5.09-.23 0-1.09-.6-1.1-.06 0 .26.85 1 1 1.21l2.23 2.65c.62-.28-.11-.73.21-1.24s4.9-4.27 6-5.24zM60.19 25.29c.44-.1.62.43 1-.06l-2.49-2.92c-.37-.44-.84-.92-.71 0 .09.63-6.11 5.66-6.49 5.82s-.76-.42-1.11.1l2.19 2.61c.25.29.48.61.75.88s.21-.67.22-.58c-.09-.51.53-.95.86-1.23a60.6 60.6 0 0 1 5.78-4.62zM51.42 24.37a3.22 3.22 0 0 1-4.21-2c-.54-1.83.61-3.76 2.07-4.8s3.59-1 4.37.84a3.61 3.61 0 0 1-.09 2.5c-.16.51-.6 1 .06 1.29l2.58-3.29c-1.05-.63-1.52-1.68-2.3-2.6A5.87 5.87 0 0 0 50.42 14c-2.87-.41-5.57 2.56-5.79 5.24a5.76 5.76 0 0 0 1.25 4c.75 1 1.87 1.62 2.43 2.75a22.52 22.52 0 0 0 3.29-1.26 1.55 1.55 0 0 0-.17-.37zM90.72 60.78c-1.15-.77-4-4.69-4.57-5.34l-.33-.44a2.21 2.21 0 0 0-.25.19c-.17.14.13.57-.05.86-.79 1.24-5.76 5-6 5.16-.56.38-1.16-.16-1.49.32a45.43 45.43 0 0 0 3 3.58c.48.08.15-.82.21-1A31.55 31.55 0 0 1 84.79 61c.34-.28.69.43.89.72a1.76 1.76 0 0 1 .3 1.57c-.12.37-.72.92-.25 1.17l2.61-3c.25-.29-.57 0-.47-.09a.91.91 0 0 1-1.06 0c-.1-.07-1.09-1.08-1-1.17a4.61 4.61 0 0 1 1.53-1.2c.86-.21 1.58 1.52 1.71 2.13a3.45 3.45 0 0 1-.05 1.73c-.12.39-.49.7 0 .93l2.13-2.92a.71.71 0 0 1-.4-.1c-.14-.08.13.08-.01.01zM80.5 56.65a5.48 5.48 0 1 0-7.79-1.07 5.42 5.42 0 0 0 7.79 1.07c1.15-.98-.1.07 0 0zm-.5-4.76a7.45 7.45 0 0 1-3.73 3.67c-1.82.71-3.1-.83-2.36-2.55a7.45 7.45 0 0 1 3.74-3.67c1.85-.74 3.07.85 2.36 2.55-.36.89.09-.17-.01 0zM74.05 42c.47.06.93.55 1.27 0l-2.23-2.64c-.59.27 0 .55-.19 1s-2.56.78-3.18.89a15.82 15.82 0 0 1 1.16-2.84c.54-.44.88.43 1.28-.14l-2.74-3.25c-.31-.37-.56-1-1-.68a8.41 8.41 0 0 1-.09 1.73c-.09.24-.94 3.64-1.93 4.47a21.51 21.51 0 0 1-2.7 2.1c-.54.19-.83-.6-1.22 0l2.49 3c.13.15.6.86.77.89.52.09.06-.89.11-1.09.15-.43 2.5-2.72 3.5-2.86a19.37 19.37 0 0 1 4.7-.58z"/><path class="cls-5" d="M67.79 22.87c-4-.17-2.35-4 .39-4.81s8.09 1.72 9.84 3.4c-2.78.85-6.39.73-9.45.87-.23-3.12-1-2-.79.54zM77.29 35.42c-8.62-.07-2.79-13.32.14-12.52 3.37 1.07 3 12.62-.14 12.52zM83.4 31.09c-.84 2.5-2.36 3-2.19-.07.19-3.5 2.48-2.66 4.93-4 2-1.12 3.14-5.21 6.64-2.77 1.56 1.09 3.35.18 3.85 1.83 0-.08-4.54 10.31-2 10.31-5 0-2.77-5.92-.87-9.9-1.85.88-4.84 6.69-2.38 7.64-1.28 1.69-5.19 3.94-7.23 2.3-1.55-1.25-.69-3.33-.71-5.34zM87.5 40.7c-3.49 1-8.12-1.21-2.51-2.34 3.48-.7 7.19.78 2.51 2.34zM91.87 40.56c-.74-1.66.56-3.64 2.68-2.2 1.85 1.25-.85 3.11-2.68 2.2zM88.93 45.22c-2.41-.75-10.54-.56-5.22-2.76 1.64-.68 10.15.1 5.22 2.76zM99.36 48.54c-1.44-1.23-2.89-1.29-4.23 0-1.79-3.29-8.32-2.19-11.37-2.65 1.64 4 14.87 4.78 15.6 2.65zM97.46 51c-3.15-.15-6.67-.56-9.65.08 1.86.47 6.4 1.79 2.17 2.92 1.51 2.17 4 2 5.58.13A15.33 15.33 0 0 1 94 53c1.67-.3 3.23-1.27 3.44-2.07zM101.06 47.08c-5.29-3.11-4-5.43.35-7.59 2.25-1.13 7.32-5.21 9.45-3.85l-9.8 11.44z"/><path class="cls-6" d="M97.29 39.81c-4.48-4.6 6.69-4.18 8.49-5.8 1.31.44 10.77-8.28 13.07-7.74-1.66 1.94-5.22 8.14-7.78 8.14-2 0-4-.29-5.47 1.11-2.22 2-5.91 3.09-8.31 4.29z"/><path class="cls-7" d="M98.76 34.18c-2.45 1.32-4.77-3.91-.54-3.4 2.81.34 5.66-.24 8.35.23a8.66 8.66 0 0 1-7.81 3.17z"/><path class="cls-3" d="M111.39 52.47a5 5 0 0 1 .21 2c-.11.87-1 2.92-2.17 2.34a18.23 18.23 0 0 1-3.19-2.55c.8-.94 1.51-1.75 2.85-1.29.37.12.69 0 .3-.26s-3.11-2-3.26-1.8.53.87.22 1.47a7 7 0 0 1-.93 1.22c-.72-.61-1.92-1.25-1.06-2.26a3.69 3.69 0 0 1 2.1-1.34c.57-.11 1.84.39 2-.22l-3.26-1.56c.18.8-3.35 4.52-4.13 5.46-.11.14-.66.61-.66.8 0 .43.62.1.66.08.49-.18 6.82 5.11 7 5.47s-.22.57 0 .73c0 0 .23.22.25.18.39-.47 4.52-6 5.37-6.22-.79-1.21-1.59-2.43-2.37-3.65-.63.26-.06.93.07 1.4zM105.23 59.17c-2.08-1.34-5.6 1.28-6.12 1.53-1 .49-1.79-.54-1.25-1.5a2.77 2.77 0 0 1 2.31-1.29c.28 0 1.35.2 1.46 0s.23-.22 0-.34l-2.53-1.71c-.18 1.05-1.38 1.73-2.08 2.44a4.7 4.7 0 0 0-1.52 3.16 3 3 0 0 0 1.68 2.66 3.31 3.31 0 0 0 3.32-.51 19.18 19.18 0 0 1 1.92-1.17c1-.47 2.3-.06 2 1.27A3.6 3.6 0 0 1 102 66a3.29 3.29 0 0 1-1.9 0c-.43-.14-1-.73-1.23-.11l3.48 2.54a2.33 2.33 0 0 1 1.09-1.56 11.68 11.68 0 0 0 2-2.13c1.15-1.74 1.56-4.12-.21-5.57zM105.23 59.17c.92.6-.59-.49 0 0zM141.92 19.64c-.73.73-8.42-2.34-9-2.76-.29-.12-.3-1.32-.71-.83L131 17.51 129.76 19c-.26.31-.54.46 0 .72.84-.42 5.42 7.35 5 8.46-.72.38-6.92-5.06-7.08-5.42-.05-.15.27-1-.21-.94-.23 0-.74.9-.89 1.07l-.92 1.11c.33.48.52 0 1 0a13.19 13.19 0 0 1 2.24 1.66c-.72 0-2.68.13-2.93.11-.9.11-.42-.66-1-.93l-2.28 2.76-1.33 1.61c-.05.07 0 0 0 .11.33.27.1.17.57 0s6.56 4.93 6.78 5.19c.38.45-.15 1 .41 1.22l1.8-2.18c.09-.11.14-.1 0-.2-.43-.35-.48.21-1 .15s-4.39-3.37-5.89-4.61l8.2-.3c.3 0 1.14.9 1.07 1.22s-.46.56.05.79c.48-.58 1-1.15 1.46-1.73l.23-.28a.74.74 0 0 0 .21-.26l.17-.21c.42-.48 1.8-2 1.63-2.15-.46-.4-.68.47-1.3-.05a12.9 12.9 0 0 1-1.44-2.16c-.26-.45.61-.9 1-1.12.78-.48 3.25-1.18 3.48.35 0 .26-.27.55-.08.7s.2.24.27.16l3.3-4a1.47 1.47 0 0 0-.36-.21zm-7.37 2.16l-.08.05.08-.05a5.71 5.71 0 0 0-1 .76L132 19.87l3.52 1.48a3.73 3.73 0 0 0-.97.45zM124.8 33a5.48 5.48 0 1 0 .59 7.6 5.38 5.38 0 0 0-.59-7.6zm-.28 6.61c-1.23 1.29-3.36.1-4.5-.73s-3.11-2.57-1.86-4.1c1.06-1.29 3.12-.23 4.19.48s3.41 2.6 2.28 4.22c.04-.05.1-.11-.11.15z"/><path class="cls-3" d="M124.8 33c1.17 1-.25-.21 0 0zM124.49 39.65l.08-.11zM118.21 42.14c.11.09.27.22-.06-.06-2.83-2.13-6.19-1.5-8.4 1.16l-3 3.57c.35.51.76-.12 1.27.18s6.24 5.1 6.34 5.37c.16.46-.25.55.14.88a41.39 41.39 0 0 0 4.97-6.24 4.34 4.34 0 0 0-1.26-4.86zm-1.32 6.75c-.24.3 0 .05-.66.65-.31.29-6.44-4.68-6.19-4.94a4.35 4.35 0 0 1 3.58-1.3c2.18.56 5.2 3.26 3.27 5.59z"/></g></g></g></symbol></svg>